<?xml version="1.0" encoding="UTF-8" standalone="no"?>
<svg
   xmlns:dc="http://purl.org/dc/elements/1.1/"
   xmlns:cc="http://creativecommons.org/ns#"
   xmlns:rdf="http://www.w3.org/1999/02/22-rdf-syntax-ns#"
   xmlns:svg="http://www.w3.org/2000/svg"
   xmlns="http://www.w3.org/2000/svg"
   xmlns:sodipodi="http://sodipodi.sourceforge.net/DTD/sodipodi-0.dtd"
   xmlns:inkscape="http://www.inkscape.org/namespaces/inkscape"
   viewBox="0 0 64 64"
   enable-background="new 0 0 64 64"
   id="svg2"
   version="1.1"
   inkscape:version="0.91 r13725"
   sodipodi:docname="agua.svg"
   inkscape:export-filename="/home/alumno/paquetes/src/buenComer/img/agua.png"
   inkscape:export-xdpi="90"
   inkscape:export-ydpi="90">
  <metadata
     id="metadata12">
    <rdf:RDF>
      <cc:Work
         rdf:about="">
        <dc:format>image/svg+xml</dc:format>
        <dc:type
           rdf:resource="http://purl.org/dc/dcmitype/StillImage" />
      </cc:Work>
    </rdf:RDF>
  </metadata>
  <defs
     id="defs10" />
  <sodipodi:namedview
     pagecolor="#ffffff"
     bordercolor="#666666"
     borderopacity="1"
     objecttolerance="10"
     gridtolerance="10"
     guidetolerance="10"
     inkscape:pageopacity="0"
     inkscape:pageshadow="2"
     inkscape:window-width="863"
     inkscape:window-height="480"
     id="namedview8"
     showgrid="false"
     inkscape:zoom="3.6875"
     inkscape:cx="32"
     inkscape:cy="32"
     inkscape:window-x="0"
     inkscape:window-y="27"
     inkscape:window-maximized="0"
     inkscape:current-layer="svg2" />
  <path
     d="m15.1 22.1c.9 8 8.2 14.9 16.9 14.9 9.4 0 17.1-8 17.1-16.7 0-.1 0-.1 0-.2-9.8-1.3-22.1 5.8-34 2"
     fill="#961623"
     id="path4"
     style="fill:#5599ff" />
  <path
     d="M 54,20.4 C 54,9 48.3,2 48.3,2 L 15.7,2 c 0,0 -5.7,7.1 -5.7,18.4 0,10.8 7.3,20.9 18.9,21.5 -0.1,6.3 -0.7,12.8 -2.2,15.1 -2.2,3.2 -7.8,1.6 -7.8,5 l 26.2,0 c 0,-3.4 -5.6,-1.8 -7.8,-5 C 35.8,54.7 35.2,48.2 35.1,41.9 46.7,41.3 54,31.3 54,20.4 M 32,39.3 C 22.2,39.3 14.1,31.5 13.1,22.6 13,22 13,21.3 13,20.7 13,10.8 17.9,4.8 17.9,4.8 l 28.2,0 c 0,0 4.8,6 4.9,15.7 l 0,0.2 c 0,9.6 -8.5,18.6 -19,18.6"
     id="path6"
     inkscape:connector-curvature="0"
     style="opacity:0.8;fill:#a1b8c7"
     sodipodi:nodetypes="cccscccccccccscccsc" />
</svg>
